<svg width="176" height="187" viewBox="0 0 176 187" fill="none" xmlns="http://www.w3.org/2000/svg">
<circle cx="88" cy="88" r="86" fill="#42B214" stroke="white" stroke-width="4"/>
<circle cx="88.0769" cy="88.0769" r="56.0769" fill="#42B214" stroke="white" stroke-width="4"/>
<path d="M26.85 114.335L18.0319 113.824C17.1902 113.774 16.5182 113.592 16.0158 113.277C15.5135 112.962 15.1415 112.48 14.9 111.833C14.753 111.439 14.657 111.009 14.6121 110.545L16.2029 109.952C16.3264 110.397 16.4091 110.677 16.4511 110.789C16.5771 111.127 16.7496 111.389 16.9685 111.575C17.1874 111.76 17.5096 111.864 17.9351 111.887L18.4925 111.92L24.041 106.804L24.7918 108.817L20.8519 112.227L26.1044 112.336L26.85 114.335Z" fill="white"/>
<path d="M25.1449 126.944L27.1636 122.593L23.7742 124.475L22.7972 122.714L26.1997 120.826L21.4191 120.231L20.3036 118.221L25.1381 118.82L26.8794 114.743L28.0387 116.832L26.3048 120.767L29.3001 119.105L30.2771 120.865L27.2949 122.521L31.5385 123.138L32.6905 125.214L28.3988 124.571L26.3188 129.059L25.1449 126.944Z" fill="white"/>
<path d="M33.8755 133.658L30.6868 129.533C30.3879 129.916 30.2456 130.33 30.2601 130.775C30.2887 131.221 30.4684 131.658 30.7992 132.086C31.2464 132.665 31.8672 133.058 32.6616 133.267L32.0826 134.778C30.9571 134.534 30.0574 133.976 29.3835 133.105C28.9118 132.494 28.6207 131.84 28.5104 131.14C28.4 130.44 28.4714 129.771 28.7245 129.132C28.9856 128.487 29.4014 127.944 29.972 127.503C30.5426 127.062 31.1658 126.796 31.8417 126.704C32.5255 126.606 33.1828 126.686 33.8137 126.945C34.4507 127.213 34.9897 127.632 35.4308 128.202C35.8474 128.741 36.0952 129.315 36.1742 129.925C36.2611 130.529 36.1834 131.108 35.9411 131.663C35.7128 132.219 35.345 132.693 34.8378 133.085C34.5525 133.306 34.2317 133.497 33.8755 133.658ZM34.0892 129.144C33.8257 128.804 33.489 128.589 33.079 128.501C32.669 128.413 32.248 128.466 31.8161 128.66L33.8837 131.335C34.2421 131.045 34.4333 130.695 34.4574 130.284C34.4814 129.873 34.3587 129.493 34.0892 129.144Z" fill="white"/>
<path d="M42.808 141.11C42.9696 141.47 43.028 141.825 42.9833 142.175C42.9461 142.532 42.7938 142.86 42.5264 143.158C42.2322 143.486 41.8824 143.704 41.4768 143.811C41.078 143.911 40.6621 143.895 40.2293 143.762C39.8039 143.637 39.401 143.403 39.0206 143.062L36.0779 140.425L41.0418 134.887L43.6152 137.193C44.1821 137.701 44.5212 138.261 44.6327 138.872C44.7508 139.475 44.596 140.016 44.1681 140.493C43.8071 140.896 43.3537 141.102 42.808 141.11ZM40.5385 138.33L41.5903 139.272C42.0378 139.673 42.4154 139.702 42.7229 139.359C42.8833 139.18 42.9444 139 42.906 138.817C42.8677 138.635 42.7366 138.443 42.5128 138.243L41.4611 137.3L40.5385 138.33ZM39.8555 141.793C40.0942 142.007 40.3308 142.118 40.5654 142.127C40.8074 142.142 41.0119 142.056 41.1791 141.87C41.3462 141.683 41.4057 141.474 41.3576 141.243C41.3169 141.018 41.1772 140.799 40.9385 140.585L39.5959 139.381L38.5129 140.59L39.8555 141.793Z" fill="white"/>
<path d="M47.2161 140.355L48.8871 141.478L47.6887 143.261L48.811 144.016C49.5592 144.519 50.0431 145.127 50.2627 145.842C50.4822 146.557 50.3657 147.251 49.9132 147.925C49.4494 148.615 48.8452 148.993 48.1004 149.06C47.3556 149.126 46.6091 148.908 45.8609 148.405L43.0675 146.528L47.2161 140.355ZM53.2766 144.428L54.9477 145.551L50.7991 151.724L49.1281 150.601L53.2766 144.428ZM46.7664 146.95C47.0574 147.146 47.3238 147.234 47.5655 147.216C47.8129 147.189 48.0204 147.051 48.188 146.801C48.3556 146.552 48.401 146.305 48.3241 146.06C48.2611 145.813 48.0883 145.594 47.8057 145.404L46.7332 144.683L45.694 146.229L46.7664 146.95Z" fill="white"/>
<path d="M59.8325 147.994C60.4198 148.275 60.8816 148.679 61.2178 149.206C61.5583 149.724 61.7409 150.306 61.7655 150.951C61.7991 151.6 61.6646 152.24 61.362 152.873C61.0507 153.523 60.6182 154.033 60.0645 154.401C59.5109 154.769 58.8938 154.968 58.2133 154.997C57.5329 155.027 56.8538 154.88 56.1762 154.556C55.4533 154.21 54.8987 153.744 54.5122 153.16C54.1301 152.566 53.9347 151.895 53.9263 151.147C53.9178 150.399 54.1038 149.627 54.4843 148.832L54.9707 147.816C55.4636 146.786 55.9941 145.99 56.5623 145.429C57.1306 144.868 57.8461 144.533 58.7089 144.424C59.5807 144.32 60.6611 144.487 61.9501 144.926C62.5448 145.122 63.0312 145.266 63.4091 145.358C63.7871 145.45 64.0344 145.501 64.1511 145.513L63.3533 147.18C62.9451 147.151 62.2225 146.944 61.1854 146.559C60.3604 146.264 59.686 146.13 59.1623 146.157C58.6476 146.188 58.2248 146.353 57.894 146.65C57.5631 146.946 57.2395 147.402 56.923 148.017C57.3623 147.772 57.8328 147.647 58.3346 147.643C58.8363 147.639 59.3356 147.756 59.8325 147.994ZM56.9468 152.876C57.4347 153.109 57.9212 153.136 58.4065 152.958C58.9008 152.783 59.2625 152.457 59.4917 151.978C59.7208 151.499 59.7461 151.017 59.5674 150.532C59.4021 150.042 59.0755 149.68 58.5876 149.447C58.1087 149.217 57.6221 149.19 57.1278 149.364C56.6469 149.534 56.2919 149.858 56.0627 150.337C55.8336 150.816 55.8016 151.3 55.9669 151.79C56.1413 152.285 56.4679 152.646 56.9468 152.876Z" fill="white"/>
<path d="M68.203 150.958C68.8609 151.17 69.3951 151.521 69.8056 152.011C70.2287 152.495 70.4974 153.065 70.6118 153.723C70.7294 154.371 70.6745 155.048 70.4473 155.753C70.2201 156.459 69.8682 157.045 69.3915 157.513C68.9148 157.98 68.3621 158.292 67.7333 158.447C67.114 158.605 66.4755 158.579 65.8176 158.367C65.3885 158.229 65.0159 158.03 64.6996 157.77C64.3864 157.501 64.1456 157.186 63.9772 156.827L62.9273 160.088L60.9965 159.466L64.105 149.812L65.8784 150.383L65.5929 151.27C65.9387 151.013 66.3362 150.857 66.7855 150.802C67.2442 150.75 67.7168 150.802 68.203 150.958ZM66.0265 156.492C66.5413 156.658 67.0319 156.622 67.4983 156.382C67.9678 156.134 68.2961 155.718 68.4834 155.137C68.6737 154.546 68.6493 154.017 68.4101 153.551C68.1835 153.078 67.8081 152.757 67.2837 152.588C66.7974 152.431 66.3242 152.463 65.8639 152.683C65.4068 152.894 65.0753 153.319 64.8696 153.957C64.667 154.587 64.6821 155.128 64.9148 155.582C65.1601 156.029 65.5307 156.333 66.0265 156.492Z" fill="white"/>
<path d="M76.1855 152.939C77.1409 153.116 77.8492 153.527 78.3105 154.172C78.7835 154.81 78.9262 155.636 78.7386 156.65L77.9356 160.994L76.1035 160.655L76.2346 159.946C75.9177 160.173 75.5526 160.329 75.1393 160.416C74.7359 160.504 74.3027 160.506 73.8398 160.42C73.0617 160.276 72.4834 159.96 72.105 159.473C71.7284 158.975 71.5992 158.407 71.7176 157.766C71.8396 157.106 72.1814 156.635 72.7431 156.352C73.3165 156.06 74.0267 155.993 74.8738 156.15L76.7058 156.488L76.7659 156.163C76.8406 155.759 76.7806 155.422 76.5861 155.152C76.4015 154.884 76.0875 154.709 75.6443 154.627C75.27 154.557 74.9196 154.579 74.5932 154.692C74.2685 154.795 73.9118 154.989 73.5231 155.273L72.7156 153.856C73.7484 153.008 74.905 152.702 76.1855 152.939ZM74.6421 159.056C75.0755 159.136 75.4645 159.07 75.8091 158.859C76.1556 158.638 76.368 158.315 76.4463 157.892L76.4627 157.803L74.8966 157.514C74.5716 157.454 74.3086 157.471 74.1076 157.566C73.9084 157.652 73.7861 157.818 73.7406 158.064C73.6951 158.31 73.7522 158.524 73.912 158.707C74.0835 158.881 74.3269 158.997 74.6421 159.056Z" fill="white"/>
<path d="M87.348 154.292L86.8474 161.712L84.8386 161.577L85.2239 155.865L83.2302 155.731L83.1768 156.3C83.0611 157.567 82.8928 158.574 82.6716 159.322C82.4505 160.071 82.1426 160.617 81.7479 160.962C81.3638 161.297 80.862 161.444 80.2424 161.402C79.9525 161.383 79.7007 161.321 79.4869 161.216L79.5992 159.552C79.6778 159.577 79.772 159.594 79.882 159.601C80.1618 159.62 80.3908 159.5 80.5689 159.241C80.757 158.982 80.9106 158.566 81.0296 157.992C81.1487 157.418 81.2462 156.641 81.3223 155.662L81.4566 153.895L87.348 154.292Z" fill="white"/>
<path d="M95.3885 153.74L95.7947 161.332L93.7693 161.441L93.5541 157.42L89.638 161.842L88.9778 161.877L88.5708 154.271L90.5813 154.163L90.798 158.214L94.7284 153.776L95.3885 153.74Z" fill="white"/>
<path d="M102.817 151.904L99.7295 152.626L99.3122 150.841L107.476 148.933L107.893 150.717L104.792 151.443L106.632 159.314L104.657 159.775L102.817 151.904Z" fill="white"/>
<path d="M116.354 152.897L111.462 154.7C111.738 155.1 112.09 155.36 112.518 155.479C112.953 155.586 113.424 155.546 113.931 155.359C114.617 155.106 115.179 154.632 115.617 153.937L116.884 154.943C116.314 155.943 115.511 156.634 114.477 157.015C113.754 157.282 113.042 157.363 112.341 157.258C111.641 157.153 111.024 156.884 110.49 156.451C109.954 156.008 109.561 155.449 109.311 154.772C109.062 154.095 108.995 153.421 109.11 152.748C109.222 152.067 109.496 151.464 109.932 150.94C110.379 150.413 110.94 150.024 111.617 149.775C112.256 149.539 112.878 149.475 113.484 149.583C114.086 149.681 114.615 149.929 115.071 150.327C115.533 150.712 115.875 151.205 116.097 151.807C116.221 152.145 116.307 152.508 116.354 152.897ZM112.113 151.337C111.708 151.486 111.403 151.743 111.196 152.108C110.988 152.472 110.913 152.89 110.969 153.36L114.141 152.191C113.972 151.762 113.695 151.475 113.31 151.328C112.925 151.182 112.526 151.185 112.113 151.337Z" fill="white"/>
<path d="M119.844 146.056C120.456 145.734 121.08 145.599 121.717 145.648C122.359 145.685 122.954 145.892 123.504 146.271C124.049 146.641 124.494 147.154 124.839 147.81C125.184 148.466 125.356 149.128 125.356 149.796C125.356 150.463 125.191 151.076 124.862 151.634C124.542 152.187 124.075 152.624 123.464 152.946C123.065 153.155 122.662 153.282 122.255 153.326C121.843 153.361 121.45 153.313 121.076 153.182L122.669 156.214L120.873 157.158L116.156 148.18L117.806 147.313L118.239 148.138C118.298 147.711 118.464 147.318 118.739 146.958C119.023 146.594 119.391 146.293 119.844 146.056ZM122.271 151.484C122.75 151.233 123.068 150.857 123.223 150.356C123.374 149.847 123.308 149.322 123.024 148.781C122.735 148.231 122.34 147.878 121.84 147.723C121.343 147.553 120.851 147.597 120.364 147.853C119.911 148.091 119.603 148.451 119.438 148.934C119.268 149.408 119.339 149.942 119.652 150.536C119.959 151.121 120.356 151.489 120.843 151.641C121.334 151.779 121.81 151.727 122.271 151.484Z" fill="white"/>
<path d="M124.357 143.547L124.891 143.157L130.002 144.239L130.541 139.022L131.062 138.64L135.552 144.776L133.915 145.973L131.804 143.088L131.546 145.789L131.001 146.189L128.369 145.62L130.472 148.493L128.847 149.682L124.357 143.547Z" fill="white"/>
<path d="M140.229 140.641C139.706 141.152 139.107 141.499 138.432 141.682C137.757 141.852 137.087 141.847 136.424 141.669C135.753 141.484 135.169 141.138 134.672 140.629C134.175 140.12 133.846 139.532 133.683 138.864C133.514 138.189 133.529 137.516 133.728 136.846C133.928 136.175 134.289 135.585 134.812 135.074C135.335 134.563 135.938 134.219 136.62 134.043C137.295 133.86 137.964 133.857 138.628 134.035C139.299 134.206 139.883 134.545 140.38 135.054C140.876 135.563 141.206 136.158 141.368 136.84C141.53 137.508 141.511 138.184 141.312 138.869C141.113 139.539 140.752 140.13 140.229 140.641ZM138.938 139.298C139.332 138.913 139.525 138.458 139.517 137.934C139.516 137.403 139.313 136.929 138.907 136.514C138.501 136.098 138.029 135.88 137.491 135.86C136.96 135.832 136.497 136.011 136.103 136.396C135.702 136.788 135.509 137.249 135.524 137.781C135.532 138.305 135.742 138.779 136.155 139.201C136.561 139.617 137.026 139.835 137.55 139.855C138.074 139.876 138.536 139.69 138.938 139.298Z" fill="white"/>
<path d="M146.232 124.669C146.711 124.33 147.211 124.153 147.734 124.138C148.248 124.117 148.753 124.277 149.246 124.62C149.707 124.939 150.043 125.343 150.254 125.83C150.462 126.304 150.526 126.817 150.446 127.372C150.364 127.912 150.143 128.442 149.784 128.96L147.267 132.59L139.118 126.939L141.121 124.05C141.464 123.556 141.871 123.18 142.342 122.922C142.805 122.658 143.284 122.539 143.778 122.565C144.27 122.577 144.738 122.737 145.182 123.045C145.775 123.456 146.125 123.997 146.232 124.669ZM141.663 126.327L143.527 127.62L144.324 126.472C144.558 126.134 144.655 125.818 144.616 125.523C144.574 125.214 144.41 124.959 144.122 124.759C143.833 124.56 143.541 124.497 143.246 124.572C142.955 124.639 142.693 124.842 142.459 125.179L141.663 126.327ZM148.266 128.09C148.517 127.728 148.623 127.381 148.585 127.05C148.547 126.719 148.367 126.442 148.046 126.219C147.733 126.002 147.415 125.934 147.091 126.014C146.759 126.089 146.467 126.307 146.216 126.669L144.898 128.571L146.947 129.992L148.266 128.09Z" fill="white"/>
<path d="M149.614 114.163L155.196 121.009C155.728 121.662 156.048 122.281 156.155 122.864C156.263 123.447 156.159 124.047 155.845 124.663C155.654 125.037 155.403 125.398 155.091 125.745L153.578 124.973C153.823 124.581 153.973 124.332 154.028 124.224C154.192 123.903 154.268 123.599 154.257 123.312C154.246 123.026 154.105 122.718 153.834 122.388L153.482 121.956L145.961 121.323L146.937 119.41L152.113 120.009L148.644 116.064L149.614 114.163Z" fill="white"/>
<path d="M158.139 107.5L161.746 108.794L161.091 110.618L159.097 109.903L157.383 114.683L159.377 115.398L158.722 117.223L155.116 115.929L155.385 115.18C155.213 114.799 154.861 114.444 154.33 114.115C153.802 113.777 153.041 113.408 152.046 113.008L150.326 112.328L152.335 106.727L157.723 108.66L158.139 107.5ZM156.085 113.228L157.044 110.555L153.268 109.2L152.547 111.209L152.952 111.37C154.4 111.932 155.444 112.551 156.085 113.228Z" fill="white"/>
<path d="M58.7431 71.6999C60.2455 71.6999 61.6324 72.0582 62.9038 72.7747C64.1982 73.4682 65.2269 74.439 65.9897 75.6873C66.7756 76.9355 67.1685 78.3455 67.1685 79.9173C67.1685 81.1887 66.9143 82.3213 66.4057 83.3153C65.9203 84.3092 65.1228 85.569 64.0133 87.0946L58.327 95H52.7793L58.0843 87.6494H57.9109C56.6396 87.6494 55.4145 87.3258 54.2356 86.6785C53.0798 86.0082 52.1437 85.0836 51.4271 83.9047C50.7105 82.7027 50.3522 81.362 50.3522 79.8827C50.3522 78.334 50.7336 76.9355 51.4964 75.6873C52.2592 74.439 53.2879 73.4682 54.5823 72.7747C55.8768 72.0582 57.2637 71.6999 58.7431 71.6999ZM58.7431 83.7313C59.8063 83.7313 60.6963 83.3615 61.4129 82.6218C62.1525 81.8821 62.5224 80.9691 62.5224 79.8827C62.5224 78.7963 62.1525 77.8832 61.4129 77.1435C60.6963 76.3807 59.8063 75.9993 58.7431 75.9993C57.7029 75.9993 56.8129 76.3692 56.0732 77.1088C55.3336 77.8485 54.9637 78.7731 54.9637 79.8827C54.9637 80.9691 55.3336 81.8821 56.0732 82.6218C56.8129 83.3615 57.7029 83.7313 58.7431 83.7313ZM79.4955 95.4161C77.5076 95.4161 75.8318 94.8844 74.468 93.8211C73.1042 92.7578 72.0871 91.3247 71.4168 89.5217C70.7464 87.6956 70.4113 85.6499 70.4113 83.3846C70.4113 79.8942 71.1856 77.0742 72.7343 74.9245C74.283 72.7747 76.5368 71.6999 79.4955 71.6999C82.4543 71.6999 84.6964 72.7747 86.222 74.9245C87.7708 77.0742 88.5451 79.8942 88.5451 83.3846C88.5451 85.6499 88.2099 87.6956 87.5396 89.5217C86.8693 91.3247 85.8522 92.7578 84.4884 93.8211C83.1477 94.8844 81.4834 95.4161 79.4955 95.4161ZM83.7256 83.4193C83.7256 80.9922 83.3789 79.1545 82.6854 77.9063C82.0151 76.6581 80.9518 76.034 79.4955 76.034C78.0161 76.034 76.9297 76.6581 76.2363 77.9063C75.5659 79.1545 75.2308 80.9922 75.2308 83.4193C75.2308 88.5277 76.6524 91.082 79.4955 91.082C82.3156 91.082 83.7256 88.5277 83.7256 83.4193ZM101.505 95.4161C99.5167 95.4161 97.8408 94.8844 96.4771 93.8211C95.1133 92.7578 94.0962 91.3247 93.4258 89.5217C92.7555 87.6956 92.4203 85.6499 92.4203 83.3846C92.4203 79.8942 93.1947 77.0742 94.7434 74.9245C96.2921 72.7747 98.5459 71.6999 101.505 71.6999C104.463 71.6999 106.706 72.7747 108.231 74.9245C109.78 77.0742 110.554 79.8942 110.554 83.3846C110.554 85.6499 110.219 87.6956 109.549 89.5217C108.878 91.3247 107.861 92.7578 106.497 93.8211C105.157 94.8844 103.493 95.4161 101.505 95.4161ZM105.735 83.4193C105.735 80.9922 105.388 79.1545 104.694 77.9063C104.024 76.6581 102.961 76.034 101.505 76.034C100.025 76.034 98.9388 76.6581 98.2454 77.9063C97.575 79.1545 97.2399 80.9922 97.2399 83.4193C97.2399 88.5277 98.6614 91.082 101.505 91.082C104.325 91.082 105.735 88.5277 105.735 83.4193ZM120.012 85.8811H114.048V81.8937H120.012V75.7913H124.485V81.8937H130.379V85.8811H124.485V92.0181H120.012V85.8811Z" fill="white"/>
<path d="M49.5517 103.563H56.2378V111H54.2095V105.276H51.5651V111H49.5517V103.563ZM61.3457 103.397C62.3173 103.397 63.0886 103.673 63.6595 104.224C64.2405 104.765 64.531 105.551 64.531 106.583V111H62.6679V110.279C62.3974 110.559 62.0669 110.78 61.6762 110.94C61.2956 111.1 60.8699 111.18 60.3991 111.18C59.6078 111.18 58.9818 110.975 58.521 110.564C58.0602 110.144 57.8299 109.608 57.8299 108.957C57.8299 108.286 58.0803 107.76 58.5811 107.379C59.0919 106.988 59.7781 106.793 60.6395 106.793H62.5026V106.462C62.5026 106.052 62.3824 105.731 62.142 105.501C61.9116 105.271 61.5711 105.155 61.1203 105.155C60.7397 105.155 60.3991 105.24 60.0986 105.411C59.7981 105.571 59.4826 105.826 59.152 106.177L58.1003 104.93C58.9617 103.908 60.0435 103.397 61.3457 103.397ZM60.94 109.693C61.3807 109.693 61.7513 109.558 62.0518 109.287C62.3523 109.007 62.5026 108.651 62.5026 108.22V108.13H60.91C60.5794 108.13 60.324 108.195 60.1437 108.326C59.9634 108.446 59.8732 108.631 59.8732 108.881C59.8732 109.132 59.9684 109.332 60.1587 109.482C60.359 109.623 60.6195 109.693 60.94 109.693ZM70.735 103.397C71.4262 103.397 72.0422 103.568 72.5831 103.908C73.134 104.239 73.5647 104.7 73.8752 105.291C74.1858 105.872 74.341 106.533 74.341 107.274C74.341 108.015 74.1858 108.681 73.8752 109.272C73.5647 109.863 73.134 110.329 72.5831 110.669C72.0422 111.01 71.4262 111.18 70.735 111.18C70.2843 111.18 69.8686 111.105 69.488 110.955C69.1074 110.795 68.7818 110.569 68.5114 110.279V113.704H66.483V103.563H68.3461V104.494C68.5965 104.144 68.9271 103.873 69.3377 103.683C69.7584 103.493 70.2242 103.397 70.735 103.397ZM70.3594 109.332C70.9003 109.332 71.3561 109.147 71.7267 108.776C72.0973 108.396 72.2826 107.9 72.2826 107.289C72.2826 106.668 72.0973 106.172 71.7267 105.801C71.3661 105.421 70.9103 105.23 70.3594 105.23C69.8486 105.23 69.4078 105.406 69.0372 105.756C68.6666 106.097 68.4813 106.603 68.4813 107.274C68.4813 107.935 68.6616 108.446 69.0222 108.806C69.3928 109.157 69.8386 109.332 70.3594 109.332ZM77.2877 105.276H75.0039V103.563H81.5998V105.276H79.301V111H77.2877V105.276ZM82.8588 103.563H84.8722V106.282H87.6217V103.563H89.635V111H87.6217V108.01H84.8722V111H82.8588V103.563ZM98.5271 107.965H93.3134C93.4336 108.436 93.674 108.801 94.0346 109.062C94.4052 109.312 94.861 109.437 95.4019 109.437C96.1331 109.437 96.8242 109.187 97.4753 108.686L98.3167 110.068C97.4353 110.81 96.4436 111.18 95.3418 111.18C94.5705 111.18 93.8744 111.01 93.2533 110.669C92.6323 110.329 92.1465 109.863 91.7959 109.272C91.4453 108.671 91.2701 108.01 91.2701 107.289C91.2701 106.568 91.4403 105.912 91.7809 105.321C92.1215 104.72 92.5872 104.249 93.1782 103.908C93.7792 103.568 94.4403 103.397 95.1615 103.397C95.8426 103.397 96.4486 103.553 96.9795 103.863C97.5104 104.164 97.9211 104.579 98.2115 105.11C98.512 105.631 98.6623 106.212 98.6623 106.853C98.6623 107.214 98.6172 107.584 98.5271 107.965ZM95.0864 105.035C94.6557 105.035 94.28 105.17 93.9595 105.441C93.639 105.711 93.4236 106.077 93.3134 106.538H96.694C96.684 106.077 96.5237 105.711 96.2132 105.441C95.9027 105.17 95.5271 105.035 95.0864 105.035ZM104.497 103.397C105.188 103.397 105.804 103.568 106.345 103.908C106.896 104.239 107.327 104.7 107.637 105.291C107.948 105.872 108.103 106.533 108.103 107.274C108.103 108.015 107.948 108.681 107.637 109.272C107.327 109.863 106.896 110.329 106.345 110.669C105.804 111.01 105.188 111.18 104.497 111.18C104.046 111.18 103.631 111.105 103.25 110.955C102.869 110.795 102.544 110.569 102.273 110.279V113.704H100.245V103.563H102.108V104.494C102.358 104.144 102.689 103.873 103.1 103.683C103.52 103.493 103.986 103.397 104.497 103.397ZM104.121 109.332C104.662 109.332 105.118 109.147 105.489 108.776C105.859 108.396 106.045 107.9 106.045 107.289C106.045 106.668 105.859 106.172 105.489 105.801C105.128 105.421 104.672 105.23 104.121 105.23C103.611 105.23 103.17 105.406 102.799 105.756C102.429 106.097 102.243 106.603 102.243 107.274C102.243 107.935 102.424 108.446 102.784 108.806C103.155 109.157 103.601 109.332 104.121 109.332ZM113.24 111.165C112.509 111.165 111.838 110.995 111.227 110.654C110.626 110.304 110.15 109.833 109.799 109.242C109.449 108.641 109.273 107.985 109.273 107.274C109.273 106.563 109.449 105.912 109.799 105.321C110.15 104.72 110.631 104.249 111.242 103.908C111.853 103.568 112.524 103.397 113.255 103.397C113.986 103.397 114.657 103.573 115.268 103.923C115.879 104.264 116.36 104.73 116.711 105.321C117.071 105.912 117.252 106.563 117.252 107.274C117.252 107.985 117.071 108.641 116.711 109.242C116.36 109.833 115.874 110.304 115.253 110.654C114.642 110.995 113.971 111.165 113.24 111.165ZM113.255 109.302C113.806 109.302 114.262 109.112 114.622 108.731C114.993 108.351 115.178 107.87 115.178 107.289C115.178 106.708 114.993 106.222 114.622 105.831C114.262 105.441 113.806 105.245 113.255 105.245C112.694 105.245 112.233 105.441 111.873 105.831C111.512 106.212 111.332 106.698 111.332 107.289C111.332 107.87 111.512 108.351 111.873 108.731C112.233 109.112 112.694 109.302 113.255 109.302ZM124.349 107.018C124.71 107.179 124.99 107.404 125.191 107.695C125.401 107.985 125.506 108.331 125.506 108.731C125.506 109.172 125.391 109.568 125.161 109.918C124.93 110.259 124.61 110.524 124.199 110.715C123.799 110.905 123.343 111 122.832 111H118.88V103.563H122.336C123.097 103.563 123.723 103.753 124.214 104.134C124.705 104.504 124.95 105.01 124.95 105.651C124.95 106.192 124.75 106.648 124.349 107.018ZM120.804 106.462H122.216C122.817 106.462 123.117 106.232 123.117 105.771C123.117 105.531 123.042 105.356 122.892 105.245C122.742 105.135 122.516 105.08 122.216 105.08H120.804V106.462ZM122.607 109.498C122.927 109.498 123.177 109.422 123.358 109.272C123.548 109.122 123.643 108.922 123.643 108.671C123.643 108.421 123.548 108.225 123.358 108.085C123.177 107.945 122.927 107.875 122.607 107.875H120.804V109.498H122.607Z" fill="white"/>
</svg>
