<svg width="43" height="41" viewBox="0 0 43 41" fill="none" xmlns="http://www.w3.org/2000/svg">
<path d="M41.5 30.051V5.74308C41.5 3.32638 39.54 1.53399 37.16 1.73538H37.04C32.84 2.09788 26.46 4.25278 22.9 6.50837L22.56 6.7299C21.98 7.09241 21.02 7.09241 20.44 6.7299L19.94 6.42781C16.38 4.19236 10.02 2.05761 5.82 1.71524C3.44 1.51385 1.5 3.32638 1.5 5.72294V30.051C1.5 31.9844 3.06 33.7969 4.98 34.0386L5.56 34.1191C9.9 34.7032 16.6 36.9185 20.44 39.0331L20.52 39.0734C21.06 39.3755 21.92 39.3755 22.44 39.0734C26.28 36.9386 33 34.7032 37.36 34.1191L38.02 34.0386C39.94 33.7969 41.5 31.9844 41.5 30.051Z" stroke="white" stroke-width="3" stroke-linecap="round" stroke-linejoin="round"/>
<path d="M21.5 7.3949V37.6037" stroke="white" stroke-width="3" stroke-linecap="round" stroke-linejoin="round"/>
<path d="M13 13.436H8.5" stroke="white" stroke-width="3" stroke-linecap="round" stroke-linejoin="round"/>
<path d="M14.5 19.4779H8.5" stroke="white" stroke-width="3" stroke-linecap="round" stroke-linejoin="round"/>
</svg>
