<svg width="25" height="24" viewBox="0 0 25 24" fill="none" xmlns="http://www.w3.org/2000/svg">
<path d="M23.7773 6.78456C23.7356 6.68772 23.6895 6.59067 23.6388 6.49836L20.7221 1.38461C20.4783 0.962632 20.1278 0.61255 19.7056 0.36944C19.2834 0.126309 18.8046 -0.00102236 18.3173 6.20186e-06H5.68973C5.20243 -0.001024 4.72361 0.126309 4.30143 0.36944C3.87925 0.612571 3.52879 0.962632 3.285 1.38461L0.368251 6.49836C0.317564 6.59067 0.271413 6.68751 0.229791 6.78456C0.0851484 6.95104 0.00479379 7.16388 0.00355424 7.38455C-0.00118475 7.4476 -0.00118475 7.51086 0.00355424 7.5737V7.8737V21.2308C0.00355424 21.9653 0.295308 22.6696 0.814538 23.189C1.33397 23.7082 2.03821 24 2.77277 24H21.2342C21.9687 24 22.673 23.7082 23.1924 23.189C23.7116 22.6696 24.0034 21.9653 24.0034 21.2308V7.8737V7.5737C24.0081 7.51086 24.0081 7.4476 24.0034 7.38455C24.0021 7.16388 23.9218 6.95104 23.7772 6.78456H23.7773ZM12.9267 1.84613H18.3174C18.6469 1.84654 18.9512 2.0223 19.1159 2.30767L21.4883 6.46148H12.9269L12.9267 1.84613ZM4.8865 2.30767C4.96789 2.16673 5.08491 2.04991 5.22605 1.96893C5.36699 1.88775 5.52688 1.84551 5.68965 1.84613H11.0804V6.46148H2.51904L4.8865 2.30767ZM22.1574 21.2306C22.1574 21.4754 22.0602 21.7103 21.8871 21.8834C21.714 22.0564 21.4791 22.1537 21.2343 22.1537H2.77293C2.52815 22.1537 2.29326 22.0564 2.12019 21.8834C1.94711 21.7103 1.84986 21.4754 1.84986 21.2306V8.30762H22.1574V21.2306Z" fill="#00A337"/>
</svg>
