<svg width="40" height="45" viewBox="0 0 40 45" fill="none" xmlns="http://www.w3.org/2000/svg">
<path d="M24.1026 44.5H15.8974C4.75898 44.5 0 39.7521 0 28.6395V16.3605C0 5.24791 4.75898 0.5 15.8974 0.5H24.1026C35.241 0.5 40 5.24791 40 16.3605V28.6395C40 39.7521 35.241 44.5 24.1026 44.5ZM15.8974 3.56977C6.44103 3.56977 3.07692 6.92605 3.07692 16.3605V28.6395C3.07692 38.074 6.44103 41.4302 15.8974 41.4302H24.1026C33.559 41.4302 36.9231 38.074 36.9231 28.6395V16.3605C36.9231 6.92605 33.559 3.56977 24.1026 3.56977H15.8974Z" fill="white"/>
<path d="M26.1535 20.1058H13.8459C11.3023 20.1058 9.23047 18.0388 9.23047 15.5011V13.4546C9.23047 10.917 11.3023 8.84998 13.8459 8.84998H26.1535C28.6971 8.84998 30.7689 10.917 30.7689 13.4546V15.5011C30.7689 18.0388 28.6971 20.1058 26.1535 20.1058ZM13.8459 11.9197C13.0048 11.9197 12.3074 12.6156 12.3074 13.4546V15.5011C12.3074 16.3402 13.0048 17.036 13.8459 17.036H26.1535C26.9946 17.036 27.692 16.3402 27.692 15.5011V13.4546C27.692 12.6156 26.9946 11.9197 26.1535 11.9197H13.8459Z" fill="white"/>
<path d="M12.103 28.4763C11.8364 28.4763 11.5697 28.4149 11.3235 28.3126C11.0774 28.2103 10.8518 28.067 10.6671 27.8828C10.2774 27.494 10.0723 26.9823 10.0723 26.4298C10.0723 26.1637 10.1133 25.8977 10.2159 25.6521C10.3184 25.3861 10.462 25.1814 10.6671 24.9768C10.7492 24.8949 10.8518 24.7926 10.9748 24.7312C11.0774 24.6493 11.2005 24.5879 11.3235 24.547C11.4466 24.4856 11.5902 24.4447 11.7133 24.4242C12.3697 24.2809 13.0877 24.5061 13.5594 24.9768C13.7441 25.1609 13.9082 25.3861 14.0107 25.6521C14.1133 25.8977 14.1748 26.1637 14.1748 26.4298C14.1748 26.9823 13.9492 27.494 13.5594 27.8828C13.1697 28.2716 12.6569 28.4763 12.103 28.4763Z" fill="white"/>
<path d="M20.3286 28.4756C19.7748 28.4756 19.262 28.2709 18.8722 27.8821C18.4825 27.4933 18.2773 26.9816 18.2773 26.4291C18.2773 26.163 18.3184 25.897 18.4209 25.6514C18.5235 25.3854 18.6671 25.1807 18.8722 24.9761C18.9543 24.8942 19.0568 24.7919 19.1799 24.7305C19.2825 24.6486 19.4055 24.5872 19.5286 24.5463C19.6517 24.4849 19.7953 24.444 19.9184 24.4235C20.3081 24.3416 20.7184 24.3826 21.1081 24.5463C21.3543 24.6486 21.5799 24.7919 21.7645 24.9761C21.9491 25.1807 22.1132 25.3854 22.2158 25.6514C22.3184 25.897 22.3799 26.163 22.3799 26.4291C22.3799 26.9816 22.1543 27.4933 21.7645 27.8821C21.3748 28.2709 20.862 28.4756 20.3286 28.4756Z" fill="white"/>
<path d="M28.5132 28.4763C28.2465 28.4763 27.9799 28.4149 27.7337 28.3125C27.4875 28.2102 27.2619 28.067 27.0773 27.8828C26.8722 27.6781 26.7286 27.453 26.626 27.2074C26.5234 26.9618 26.4824 26.6958 26.4824 26.4297C26.4824 26.1637 26.5234 25.8977 26.626 25.6521C26.7286 25.386 26.8722 25.1814 27.0773 24.9767C27.8363 24.2195 29.2106 24.2195 29.9696 24.9767C30.3593 25.3656 30.585 25.8977 30.585 26.4297C30.585 26.9823 30.3593 27.4939 29.9696 27.8828C29.6004 28.2511 29.0875 28.4763 28.5132 28.4763Z" fill="white"/>
<path d="M12.1226 36.6619C11.5687 36.6619 11.0559 36.4572 10.6662 36.0684C10.2764 35.6795 10.0508 35.1679 10.0508 34.6154C10.0508 34.0833 10.2764 33.5512 10.6662 33.1623C10.7482 33.0805 10.8713 32.9782 10.9739 32.9168C11.0764 32.8349 11.1995 32.7735 11.3226 32.7326C11.4457 32.6712 11.5892 32.6302 11.7123 32.6098C12.3892 32.487 13.0867 32.6916 13.5585 33.1623C13.661 33.2647 13.7431 33.367 13.8251 33.4693C13.8867 33.5921 13.9482 33.7149 14.0098 33.8377C14.0508 33.9605 14.0918 34.0833 14.1328 34.2061C14.1533 34.3493 14.1739 34.4721 14.1739 34.6154C14.1739 35.1679 13.9482 35.6795 13.5585 36.0684C13.1687 36.4572 12.6559 36.6619 12.1226 36.6619Z" fill="white"/>
<path d="M20.3296 36.6619C19.7758 36.6619 19.2629 36.4572 18.8732 36.0684C18.4835 35.6795 18.2578 35.1679 18.2578 34.6154C18.2578 34.0833 18.4835 33.5512 18.8732 33.1623C19.345 32.6916 20.0629 32.487 20.7194 32.6098C20.8424 32.6302 20.986 32.6712 21.1091 32.7326C21.2322 32.7735 21.3552 32.8349 21.4578 32.9168C21.5604 32.9782 21.6629 33.0805 21.7655 33.1623C22.1552 33.5512 22.3604 34.0833 22.3604 34.6154C22.3604 35.1679 22.1552 35.6795 21.7655 36.0684C21.3758 36.4572 20.8629 36.6619 20.3296 36.6619Z" fill="white"/>
<path d="M28.5132 36.6623C27.9799 36.6623 27.467 36.4577 27.0773 36.0689C26.6876 35.68 26.4824 35.1684 26.4824 34.6158C26.4824 34.0837 26.6876 33.5516 27.0773 33.1628C27.2619 32.9786 27.4875 32.8354 27.7337 32.733C28.4927 32.4261 29.4158 32.5898 29.9696 33.1628C30.3593 33.5516 30.5645 34.0837 30.5645 34.6158C30.5645 35.1684 30.3593 35.68 29.9696 36.0689C29.785 36.253 29.5593 36.3963 29.3132 36.4986C29.067 36.6009 28.8004 36.6623 28.5132 36.6623Z" fill="white"/>
</svg>
