<svg width="44" height="43" viewBox="0 0 44 43" fill="none" xmlns="http://www.w3.org/2000/svg">
<path d="M41.4396 34.1599C41.4396 34.8799 41.2796 35.6199 40.9396 36.3398C40.5996 37.0598 40.1596 37.7398 39.5796 38.3798C38.5996 39.4598 37.5196 40.2398 36.2997 40.7398C35.0997 41.2398 33.7997 41.4998 32.3997 41.4998C30.3597 41.4998 28.1797 41.0198 25.8798 40.0398C23.5798 39.0598 21.2798 37.7398 18.9998 36.0798C16.6999 34.3999 14.5199 32.5399 12.4399 30.4799C10.3799 28.3999 8.51993 26.2199 6.85995 23.94C5.21996 21.66 3.89998 19.38 2.93999 17.12C1.98 14.8401 1.5 12.6601 1.5 10.5801C1.5 9.22011 1.74 7.92012 2.21999 6.72013C2.69999 5.50014 3.45998 4.38016 4.51997 3.38016C5.79996 2.12018 7.19994 1.50018 8.67993 1.50018C9.23993 1.50018 9.79992 1.62018 10.2999 1.86018C10.8199 2.10018 11.2799 2.46017 11.6399 2.98017L16.2799 9.52011C16.6399 10.0201 16.8999 10.4801 17.0798 10.9201C17.2598 11.3401 17.3598 11.7601 17.3598 12.1401C17.3598 12.6201 17.2198 13.1001 16.9399 13.5601C16.6799 14.0201 16.2999 14.5001 15.8199 14.9801L14.2999 16.56C14.0799 16.78 13.9799 17.04 13.9799 17.36C13.9799 17.52 13.9999 17.66 14.0399 17.82C14.0999 17.98 14.1599 18.1 14.1999 18.22C14.5599 18.88 15.1799 19.74 16.0599 20.78C16.9598 21.82 17.9198 22.88 18.9598 23.94C20.0398 25 21.0798 25.9799 22.1398 26.8799C23.1798 27.7599 24.0398 28.3599 24.7198 28.7199C24.8198 28.7599 24.9398 28.8199 25.0798 28.8799C25.2398 28.9399 25.3998 28.9599 25.5798 28.9599C25.9198 28.9599 26.1798 28.8399 26.3998 28.6199L27.9197 27.1199C28.4197 26.6199 28.8997 26.2399 29.3597 25.9999C29.8197 25.7199 30.2797 25.5799 30.7797 25.5799C31.1597 25.5799 31.5597 25.6599 31.9997 25.8399C32.4397 26.0199 32.8997 26.2799 33.3997 26.6199L40.0196 31.3199C40.5396 31.6799 40.8996 32.0999 41.1196 32.5999C41.3196 33.0999 41.4396 33.5999 41.4396 34.1599Z" stroke="white" stroke-width="3" stroke-miterlimit="10"/>
<path d="M34.5019 15.5001C34.5019 14.3001 33.5619 12.4601 32.1619 10.9601C30.8819 9.58011 29.1819 8.50012 27.502 8.50012" stroke="white" stroke-width="3" stroke-linecap="round" stroke-linejoin="round"/>
<path d="M41.5018 15.5C41.5018 7.76012 35.2419 1.50018 27.502 1.50018" stroke="white" stroke-width="3" stroke-linecap="round" stroke-linejoin="round"/>
</svg>
