<svg width="51" height="40" viewBox="0 0 51 40" fill="none" xmlns="http://www.w3.org/2000/svg">
<path fill-rule="evenodd" clip-rule="evenodd" d="M50.9117 7.22869V32.8102C50.9117 34.5058 50.2374 36.1335 49.0395 37.3334C47.8396 38.531 46.2114 39.2057 44.5163 39.2057H7.30755C5.61201 39.2057 3.98425 38.5314 2.78436 37.3334C1.58676 36.1335 0.912109 34.5054 0.912109 32.8102V7.22869C0.912109 5.53315 1.58642 3.90539 2.78436 2.7055C3.98425 1.5079 5.61241 0.833252 7.30755 0.833252H44.5163C46.2118 0.833252 47.8396 1.50756 49.0395 2.7055C50.2371 3.90539 50.9117 5.53355 50.9117 7.22869ZM47.4234 7.22869C47.4234 6.45666 47.1166 5.71923 46.5723 5.17306C46.0257 4.62878 45.2887 4.32199 44.5167 4.32199H7.30794C6.53591 4.32199 5.79848 4.62877 5.2523 5.17306C4.70803 5.71967 4.40124 6.45667 4.40124 7.22869V32.8102C4.40124 33.5823 4.70802 34.3197 5.2523 34.8659C5.79892 35.4102 6.53592 35.7169 7.30794 35.7169H44.5167C45.2887 35.7169 46.0261 35.4102 46.5723 34.8659C47.1166 34.3193 47.4234 33.5823 47.4234 32.8102V7.22869Z" fill="#42B214"/>
<path fill-rule="evenodd" clip-rule="evenodd" d="M49.1679 13.6233C50.1307 13.6233 50.9121 14.4047 50.9121 15.3675C50.9121 16.3303 50.1307 17.1116 49.1679 17.1116H2.65628C1.69348 17.1116 0.912109 16.3303 0.912109 15.3675C0.912109 14.4047 1.69348 13.6233 2.65628 13.6233H49.1679Z" fill="#42B214"/>
<path fill-rule="evenodd" clip-rule="evenodd" d="M14.2841 27.5767C15.2469 27.5767 16.0283 28.358 16.0283 29.3208C16.0283 30.2836 15.2469 31.065 14.2841 31.065H9.63285C8.67004 31.065 7.88867 30.2836 7.88867 29.3208C7.88867 28.358 8.67004 27.5767 9.63285 27.5767H14.2841Z" fill="#42B214"/>
<path fill-rule="evenodd" clip-rule="evenodd" d="M24.749 27.5767C25.7118 27.5767 26.4931 28.358 26.4931 29.3208C26.4931 30.2836 25.7118 31.065 24.749 31.065H20.0977C19.1349 31.065 18.3535 30.2836 18.3535 29.3208C18.3535 28.358 19.1349 27.5767 20.0977 27.5767H24.749Z" fill="#42B214"/>
</svg>
