<svg width="18" height="19" viewBox="0 0 18 19" fill="none" xmlns="http://www.w3.org/2000/svg">
<path d="M12.8875 18.1325C12.217 18.1325 11.5217 17.9835 10.8513 17.6608L3.84937 14.3584C3.42724 14.1598 3.1044 13.8121 2.95555 13.3651C2.80652 12.9182 2.83146 12.4463 3.03006 12.0241C3.05485 11.9496 3.12936 11.8751 3.20387 11.8503C3.9239 11.4034 5.36412 11.2047 6.18359 11.5772L2.95554 6.38782C2.70721 5.99047 2.6327 5.51878 2.732 5.07183C2.8313 4.62492 3.12934 4.22758 3.52653 3.97924C4.34601 3.48261 5.43844 3.73091 5.93507 4.55038L7.37529 6.88441C7.49937 6.76033 7.62361 6.63609 7.77263 6.56158C8.29405 6.23875 8.93973 6.21396 9.46115 6.48707C9.61017 6.21396 9.80877 5.99043 10.0819 5.8166C10.6033 5.49377 11.249 5.46898 11.7704 5.74209C11.9194 5.46898 12.118 5.24546 12.3911 5.07162C12.8133 4.8233 13.3099 4.74879 13.7816 4.87303C14.2285 4.99711 14.6011 5.27037 14.8245 5.66756L17.3821 10.3358C18.6235 12.6203 17.829 15.103 16.4633 16.5432C15.4452 17.5615 14.1787 18.1325 12.8875 18.1325ZM3.74972 12.5209C3.7 12.6947 3.7 12.8933 3.77451 13.0671C3.84902 13.2906 4.02283 13.4644 4.22142 13.5637L11.2238 16.8663C13.1109 17.7601 14.849 16.9408 15.8421 15.8979C16.9843 14.6813 17.6795 12.5955 16.6366 10.7085L14.0543 6.01515C13.955 5.84134 13.7812 5.69231 13.5576 5.64274C13.3093 5.56823 13.061 5.61796 12.8376 5.74204C12.5893 5.89107 12.4403 6.13939 12.4155 6.43729C12.3907 6.6111 12.2914 6.76012 12.1176 6.83463C11.9438 6.88436 11.77 6.83463 11.6459 6.71055C11.3728 6.38772 10.8762 6.3132 10.5037 6.53674C10.2554 6.68576 10.1064 6.93408 10.0816 7.23198C10.0568 7.4058 9.95753 7.55482 9.78373 7.62933C9.60991 7.67906 9.43611 7.62933 9.31203 7.50525C9.03892 7.18241 8.54228 7.1079 8.16988 7.33143C7.97128 7.45552 7.82226 7.65427 7.77253 7.90257C7.7228 8.07638 7.59872 8.20046 7.42491 8.25019C7.2511 8.27498 7.07729 8.20046 6.978 8.05159L5.1406 5.07188C4.89227 4.64975 4.34607 4.52564 3.92394 4.79877C3.72534 4.92285 3.57632 5.1216 3.52659 5.345C3.47686 5.56854 3.50181 5.81669 3.62589 6.01547L7.6237 12.4715C7.723 12.6453 7.69821 12.8439 7.57397 12.9929C7.44989 13.1419 7.22635 13.1915 7.05255 13.0922L5.81063 12.3719C5.33878 12.1485 4.3209 12.2478 3.74972 12.5209Z" fill="#1C1C1C"/>
<path d="M2.97973 9.26811C2.93001 9.26811 2.88044 9.26811 2.83071 9.24332C1.1422 8.64736 0 7.03336 0 5.22078C0 2.86196 1.91191 0.950012 4.27077 0.950012C6.3565 0.950012 8.16913 2.5143 8.49205 4.55047C8.51683 4.7988 8.36796 5.02216 8.11964 5.0471C7.87132 5.07189 7.64795 4.92302 7.62301 4.6747C7.37468 3.03591 5.9345 1.81921 4.27088 1.81921C2.40854 1.81921 0.893979 3.33393 0.893979 5.19611C0.893979 6.63633 1.7878 7.90255 3.15351 8.39923C3.37705 8.47374 3.50113 8.72206 3.42662 8.97036C3.32732 9.14418 3.15351 9.26826 2.97971 9.26826L2.97973 9.26811Z" fill="#1C1C1C"/>
</svg>
