<svg width="30" height="26" viewBox="0 0 30 26" fill="none" xmlns="http://www.w3.org/2000/svg">
<path d="M11.9539 25.5V20.4808C10.3642 20.3927 9.16138 20.1025 8.34547 19.6102C7.52756 19.1179 6.95423 18.3194 6.62345 17.2147C6.29268 16.11 6.12629 14.529 6.12629 12.4737H11.9539V0.5H-5.24335e-07V11.8833C-5.24335e-07 16.5863 1.01036 20.0305 3.02907 22.2179C5.04978 24.4053 8.02472 25.5 11.9539 25.5ZM30 25.5V20.4808C28.4103 20.3927 27.2075 20.1146 26.3916 19.6443C25.5737 19.174 24.9843 18.3754 24.6194 17.2487C24.2546 16.122 24.0742 14.531 24.0742 12.4757H30V0.5H17.98V11.8833C17.98 16.5863 18.9843 20.0305 20.993 22.2179C23.0017 24.4053 26.0047 25.5 30 25.5Z" fill="#42B214"/>
</svg>
