<svg width="54" height="50" viewBox="0 0 54 50" fill="none" xmlns="http://www.w3.org/2000/svg">
<path d="M49.5224 0.22876H46.2462C45.2557 0.22876 44.4938 0.533522 44.0367 1.524L37.7891 15.7716H42.2081C42.2081 15.7716 42.97 13.8669 43.1224 13.4097C43.5795 13.4097 47.9224 13.4097 48.5319 13.4097C48.6843 13.943 49.0653 15.6954 49.0653 15.6954H53.0272L49.5224 0.22876ZM44.3414 10.2097C44.7224 9.29543 46.0176 5.86686 46.0176 5.86686C46.0176 5.94305 46.3986 4.95257 46.551 4.41924L46.8557 5.79066C46.8557 5.79066 47.6938 9.524 47.8462 10.2859H44.3414V10.2097Z" fill="#3362AB"/>
<path d="M38.0938 10.6667C38.0938 13.8667 35.1985 16 30.7033 16C28.7985 16 26.97 15.619 25.9795 15.1619L26.589 11.6571L27.1223 11.8857C28.4938 12.4952 29.4081 12.7238 31.0843 12.7238C32.3033 12.7238 33.5985 12.2667 33.5985 11.2C33.5985 10.5143 33.0652 10.0571 31.389 9.29524C29.789 8.53333 27.6557 7.31429 27.6557 5.10476C27.6557 2.05714 30.6271 0 34.8176 0C36.4176 0 37.789 0.304762 38.6271 0.685714L38.0176 4.0381L37.7128 3.73333C36.9509 3.42857 35.9604 3.12381 34.5128 3.12381C32.9128 3.2 32.1509 3.88571 32.1509 4.49524C32.1509 5.18095 33.0652 5.71429 34.5128 6.4C36.9509 7.54286 38.0938 8.8381 38.0938 10.6667Z" fill="#3362AB"/>
<path d="M0.912109 0.380934L0.9883 0.0761719H7.54068C8.45497 0.0761719 9.14068 0.380934 9.36925 1.37141L10.8169 8.22855C9.36925 4.57141 6.01687 1.59998 0.912109 0.380934Z" fill="#F9B50B"/>
<path d="M20.0359 0.228534L13.4073 15.6952H8.91206L5.10254 2.74282C7.8454 4.4952 10.1311 7.23806 10.9692 9.14282L11.4263 10.7428L15.5406 0.152344H20.0359V0.228534Z" fill="#3362AB"/>
<path d="M21.7887 0.152344H25.9792L23.3125 15.6952H19.1221L21.7887 0.152344Z" fill="#3362AB"/>
<path d="M48.9971 36.4746C48.9971 43.8962 42.9627 50 35.4717 50C28.0501 50 21.9463 43.8962 21.9463 36.4746C21.9463 29.053 27.9807 22.9492 35.4023 22.9492C42.9627 22.9492 48.9971 29.053 48.9971 36.4746Z" fill="#F9B50B"/>
<path d="M30.8935 36.544C30.8935 35.5729 30.7548 34.6019 30.6161 33.7002H22.2928C22.3621 33.2146 22.5009 32.7985 22.6396 32.2436H30.0612C29.9225 31.7581 29.7144 31.2725 29.5063 30.787H23.1945C23.4025 30.3015 23.68 29.8853 23.9574 29.3304H28.7433C28.4659 28.8449 28.1191 28.3594 27.7029 27.8738H25.0672C25.4834 27.3883 25.8995 26.9722 26.4544 26.4866C24.0962 24.2671 20.9055 22.9492 17.3681 22.9492C10.0159 23.1573 3.91211 29.053 3.91211 36.4746C3.91211 43.8962 9.94651 50 17.4375 50C20.9749 50 24.0962 48.6128 26.5238 46.4626C27.0093 46.0464 27.4255 45.5609 27.911 45.006H25.1366C24.7898 44.5898 24.443 44.1043 24.1655 43.6188H28.8821C29.1595 43.2026 29.4369 42.7171 29.645 42.1622H23.3332C23.1251 41.746 22.917 41.2605 22.7783 40.7056H30.1999C30.6161 39.4571 30.8935 38.0699 30.8935 36.544Z" fill="#C8191C"/>
<path d="M22.2234 39.9427L22.4315 38.6942C22.3621 38.6942 22.2234 38.7636 22.0847 38.7636C21.5992 38.7636 21.5298 38.4861 21.5992 38.3474L22.0153 35.8504H22.7783L22.9864 34.4632H22.2928L22.4315 33.6309H20.9749C20.9749 33.6309 20.1426 38.3474 20.1426 38.9023C20.1426 39.7346 20.6281 40.1508 21.3217 40.1508C21.7379 40.1508 22.0847 40.0121 22.2234 39.9427Z" fill="white"/>
<path d="M22.709 37.6538C22.709 39.6652 24.0962 40.1508 25.206 40.1508C26.2464 40.1508 26.7319 39.9427 26.7319 39.9427L27.0094 38.5555C27.0094 38.5555 26.2464 38.9023 25.4834 38.9023C23.8881 38.9023 24.1656 37.7231 24.1656 37.7231H27.0787C27.0787 37.7231 27.2868 36.8214 27.2868 36.4053C27.2868 35.5036 26.8013 34.3244 25.206 34.3244C23.8188 34.2551 22.709 35.8504 22.709 37.6538ZM25.206 35.5729C25.969 35.5729 25.8302 36.4746 25.8302 36.544H24.2349C24.3043 36.4746 24.443 35.5729 25.206 35.5729Z" fill="white"/>
<path d="M34.2924 39.9425L34.5699 38.3472C34.5699 38.3472 33.8763 38.694 33.3214 38.694C32.3503 38.694 31.8648 37.931 31.8648 37.0293C31.8648 35.2953 32.6971 34.3936 33.7376 34.3936C34.4312 34.3936 35.0554 34.8098 35.0554 34.8098L35.2635 33.2838C35.2635 33.2838 34.4312 32.937 33.5988 32.937C31.9342 32.937 30.3389 34.3936 30.3389 37.0987C30.3389 38.9021 31.1712 40.0812 32.9052 40.0812C33.5295 40.1506 34.2924 39.9425 34.2924 39.9425Z" fill="white"/>
<path d="M14.3857 34.2549C13.4147 34.2549 12.6517 34.5323 12.6517 34.5323L12.4436 35.7808C12.4436 35.7808 13.0679 35.5034 14.0389 35.5034C14.5245 35.5034 14.9406 35.5727 14.9406 35.9889C14.9406 36.2664 14.8713 36.3357 14.8713 36.3357H14.247C12.9985 36.3357 11.6807 36.8212 11.6807 38.4859C11.6807 39.8038 12.513 40.0812 13.0679 40.0812C14.0389 40.0812 14.5245 39.457 14.5938 39.457L14.5245 40.0118H15.7036L16.2585 36.0583C16.2585 34.3242 14.8713 34.2549 14.3857 34.2549ZM14.6632 37.4455C14.6632 37.6536 14.5245 38.8327 13.6921 38.8327C13.276 38.8327 13.1372 38.4859 13.1372 38.2778C13.1372 37.931 13.3453 37.4455 14.4551 37.4455C14.5938 37.4455 14.6632 37.4455 14.6632 37.4455Z" fill="white"/>
<path d="M17.6461 40.0812C17.9929 40.0812 19.7963 40.1506 19.7963 38.2085C19.7963 36.4051 18.0623 36.7519 18.0623 36.0583C18.0623 35.7115 18.3397 35.5728 18.8253 35.5728C19.0334 35.5728 19.7963 35.6421 19.7963 35.6421L20.0044 34.3243C20.0044 34.3243 19.5189 34.1855 18.6172 34.1855C17.5768 34.1855 16.467 34.6017 16.467 36.0583C16.467 37.723 18.2704 37.5842 18.2704 38.2085C18.2704 38.6246 17.7849 38.694 17.4381 38.694C16.8138 38.694 16.1202 38.4859 16.1202 38.4859L15.9121 39.8038C16.0508 39.9425 16.467 40.0812 17.6461 40.0812Z" fill="white"/>
<path d="M46.2222 33.1453L45.9447 35.0874C45.9447 35.0874 45.3898 34.3938 44.5575 34.3938C43.2397 34.3938 42.1299 35.9891 42.1299 37.8618C42.1299 39.0409 42.6848 40.2201 43.9333 40.2201C44.7656 40.2201 45.3205 39.6652 45.3205 39.6652L45.2511 40.1507H46.7077L47.7481 33.284L46.2222 33.1453ZM45.5286 36.8908C45.5286 37.6537 45.1818 38.6941 44.3494 38.6941C43.8639 38.6941 43.5865 38.278 43.5865 37.515C43.5865 36.3359 44.072 35.6423 44.7656 35.6423C45.2511 35.7116 45.5286 36.0584 45.5286 36.8908Z" fill="white"/>
<path d="M6.68702 40.2203L7.51936 35.0875L7.65808 40.2203H8.62913L10.5019 35.0875L9.73891 40.2203H11.2648L12.444 33.3535H10.0857L8.62913 37.5845L8.55977 33.3535H6.47894L5.2998 40.2203H6.68702Z" fill="white"/>
<path d="M28.7428 40.0118C29.1589 37.6535 29.2283 35.7114 30.2687 36.0582C30.4074 35.1565 30.6155 34.7404 30.7542 34.3936H30.4768C29.8525 34.3936 29.2977 35.2259 29.2977 35.2259L29.4364 34.4629H28.0492L27.1475 40.0118H28.7428Z" fill="white"/>
<path d="M37.6221 34.2549C36.651 34.2549 35.888 34.5323 35.888 34.5323L35.68 35.7808C35.68 35.7808 36.3042 35.5034 37.2753 35.5034C37.7608 35.5034 38.177 35.5727 38.177 35.9889C38.177 36.2664 38.1076 36.3357 38.1076 36.3357H37.4833C36.2349 36.3357 34.917 36.8212 34.917 38.4859C34.917 39.8038 35.7493 40.0812 36.3042 40.0812C37.2753 40.0812 37.7608 39.457 37.8302 39.457L37.7608 40.0118H39.0787L39.6335 36.0583C39.6335 34.3242 38.1076 34.2549 37.6221 34.2549ZM37.9689 37.4455C37.9689 37.6536 37.8302 38.8327 36.9978 38.8327C36.5817 38.8327 36.4429 38.4859 36.4429 38.2778C36.4429 37.931 36.651 37.4455 37.7608 37.4455C37.8995 37.4455 37.8995 37.4455 37.9689 37.4455Z" fill="white"/>
<path d="M40.7428 40.0118C41.1589 37.6535 41.2283 35.7114 42.2687 36.0582C42.4074 35.1565 42.6155 34.7404 42.7542 34.3936H42.4768C41.8525 34.3936 41.2977 35.2259 41.2977 35.2259L41.4364 34.4629H40.0492L39.1475 40.0118H40.7428Z" fill="white"/>
</svg>
