<svg width="16" height="17" viewBox="0 0 16 17" fill="none" xmlns="http://www.w3.org/2000/svg">
<path d="M7.99983 0.847656C3.77533 0.847656 0.347656 4.27533 0.347656 8.49983C0.347656 10.1914 0.895194 11.7494 1.82111 13.0181L0.846227 15.9027L3.88662 14.9545C5.07518 15.7113 6.48631 16.152 7.99983 16.152C12.2243 16.152 15.652 12.7243 15.652 8.49983C15.652 4.27533 12.2243 0.847656 7.99983 0.847656ZM11.5032 12.6041C10.1143 13.1606 8.45834 12.6219 6.64657 11.2464C4.83479 9.8709 3.64179 7.93449 3.56166 6.49664C3.48153 5.0588 4.65228 4.3332 5.28885 4.33765C5.92542 4.3421 6.62431 6.37645 6.63321 6.68806C6.64211 7.00412 5.85419 7.56501 5.82303 7.8321C5.79187 8.09919 6.89585 9.41684 7.36326 9.77297C7.82622 10.1246 8.7833 10.8013 9.27742 10.7389C9.76709 10.6722 10.092 9.68839 10.4037 9.62607C10.7153 9.56374 12.4157 10.4095 12.5849 10.6277C12.7541 10.8502 12.7363 12.1145 11.5032 12.6041Z" fill="white"/>
</svg>
