<svg width="1315" height="296" viewBox="0 0 1315 296" fill="none" xmlns="http://www.w3.org/2000/svg">
<path d="M358.735 6.15811H358.044L357.8 6.80438L296.047 170.089L223.324 1.64022L223.063 1.03658H222.406H203.234H202.575L202.315 1.64188L129.592 170.931L67.8405 6.80597L67.5967 6.15811H66.9045H3H1.5337L2.06903 7.5232L114.541 294.328L114.79 294.963H115.472H134.217H134.866L135.131 294.371L213.03 119.731L290.508 294.369L290.772 294.963H291.422H310.168H310.85L311.099 294.328L423.571 7.5232L424.106 6.15811H422.64H358.735ZM483.983 43.5725L483.979 43.5759C454.257 72.779 439.657 107.605 440.225 148C439.657 188.396 454.257 223.221 483.979 252.424L483.983 252.428C513.987 281.626 549.455 295.818 590.336 294.964C631.217 295.818 666.685 281.626 696.689 252.428C726.979 223.227 741.867 188.4 741.298 148C741.867 107.6 726.979 72.7732 696.689 43.5725C666.685 14.3739 631.217 0.182303 590.336 1.03636C549.455 0.182303 513.987 14.3739 483.983 43.5725ZM654.373 82.5418L654.379 82.5477L654.385 82.5535C671.505 99.7043 680.08 121.493 680.08 148C680.08 174.795 671.503 196.725 654.385 213.873L654.379 213.879C637.538 231.031 616.358 239.614 590.762 239.614C564.878 239.614 543.557 231.029 526.719 213.879C509.882 196.731 501.443 174.8 501.443 148C501.443 121.2 509.882 99.2685 526.719 82.1208C543.557 64.9713 564.878 56.3858 590.762 56.3858C616.353 56.3858 637.531 65.1074 654.373 82.5418ZM815.571 43.5725L815.567 43.5759C785.845 72.779 771.245 107.605 771.813 148C771.245 188.396 785.845 223.221 815.567 252.424L815.571 252.428C845.575 281.626 881.043 295.818 921.924 294.964C962.805 295.818 998.273 281.626 1028.28 252.428C1058.57 223.227 1073.45 188.401 1072.89 148C1073.45 107.6 1058.57 72.7732 1028.28 43.5725C998.273 14.3739 962.805 0.182303 921.924 1.03636C881.043 0.182303 845.575 14.3739 815.571 43.5725ZM985.961 82.5418L985.967 82.5477L985.973 82.5535C1003.09 99.7043 1011.67 121.493 1011.67 148C1011.67 174.795 1003.09 196.725 985.973 213.873L985.967 213.879C969.126 231.031 947.946 239.614 922.35 239.614C896.466 239.614 875.145 231.029 858.307 213.879C841.47 196.731 833.031 174.8 833.031 148C833.031 121.2 841.47 99.2685 858.307 82.1208C875.145 64.9713 896.466 56.3858 922.35 56.3858C947.941 56.3858 969.119 65.1074 985.961 82.5418ZM1119.59 288.842V289.842H1120.59H1212.61C1257.14 290.412 1294.17 277.107 1323.63 249.885C1353.1 222.659 1367.55 188.387 1366.98 147.146C1367.55 105.629 1353.25 71.6361 1324.06 45.258C1294.87 18.602 1257.69 5.58763 1212.61 6.15811H1120.59H1119.59V7.15811V288.842ZM1212.19 235.773H1179.1V60.2269H1212.19C1240.97 60.2269 1263.71 67.9973 1280.53 83.4371C1297.32 98.8625 1305.77 120.056 1305.77 147.146C1305.77 173.942 1297.19 195.433 1280.09 211.722C1262.98 227.73 1240.38 235.773 1212.19 235.773Z" stroke="white" stroke-opacity="0.3" stroke-width="2"/>
</svg>
